<svg width="512" height="512" viewBox="0 0 512 512" fill="none" xmlns="http://www.w3.org/2000/svg">
<path d="M431.086 89.7522L431.085 89.7533L256.002 265.047L187.584 196.422L187.581 196.419C183.095 191.933 177.011 189.413 170.667 189.413C164.323 189.413 158.238 191.933 153.752 196.419C149.266 200.905 146.746 206.989 146.746 213.333C146.746 216.475 147.365 219.585 148.567 222.487C149.769 225.39 151.531 228.027 153.752 230.248L239.078 315.574C239.08 315.575 239.081 315.576 239.082 315.578C241.297 317.81 243.932 319.581 246.834 320.791C249.739 322.001 252.854 322.624 256 322.624C259.146 322.624 262.261 322.001 265.166 320.791C268.068 319.581 270.703 317.81 272.918 315.578C272.919 315.576 272.92 315.575 272.922 315.574L464.914 123.581C469.4 119.095 471.921 113.011 471.921 106.667C471.921 100.323 469.4 94.2382 464.914 89.7522C460.428 85.2663 454.344 82.746 448 82.746C441.656 82.746 435.572 85.2663 431.086 89.7522ZM149.333 450.5H362.667C385.962 450.5 408.302 441.246 424.774 424.774C441.246 408.302 450.5 385.962 450.5 362.667V259.2C450.5 252.879 447.989 246.817 443.519 242.347C439.05 237.878 432.988 235.367 426.667 235.367C420.346 235.367 414.284 237.878 409.814 242.347C405.344 246.817 402.833 252.879 402.833 259.2V362.667C402.833 373.32 398.602 383.536 391.069 391.069C383.536 398.602 373.32 402.833 362.667 402.833H149.333C138.68 402.833 128.464 398.602 120.931 391.069C113.398 383.536 109.167 373.32 109.167 362.667V149.333C109.167 138.68 113.398 128.464 120.931 120.931C128.464 113.398 138.68 109.167 149.333 109.167H256C262.321 109.167 268.383 106.656 272.853 102.186C277.322 97.7164 279.833 91.6543 279.833 85.3333C279.833 79.0123 277.322 72.9502 272.853 68.4806C268.383 64.011 262.321 61.5 256 61.5H149.333C126.038 61.5 103.698 70.7538 87.2258 87.2258C70.7538 103.698 61.5 126.038 61.5 149.333V362.667C61.5 385.962 70.7538 408.302 87.2258 424.774C103.698 441.246 126.038 450.5 149.333 450.5Z" fill="#03045E" stroke="white" stroke-width="5"/>
</svg>
