<svg width="512" height="512" viewBox="0 0 512 512" fill="none" xmlns="http://www.w3.org/2000/svg">
<path d="M149.333 448H362.667C385.298 448 407.003 439.01 423.006 423.006C439.01 407.003 448 385.298 448 362.667V259.2C448 253.542 445.752 248.116 441.752 244.115C437.751 240.114 432.325 237.867 426.667 237.867C421.009 237.867 415.583 240.114 411.582 244.115C407.581 248.116 405.333 253.542 405.333 259.2V362.667C405.333 373.983 400.838 384.835 392.837 392.837C384.835 400.838 373.983 405.333 362.667 405.333H149.333C138.017 405.333 127.165 400.838 119.163 392.837C111.162 384.835 106.667 373.983 106.667 362.667V149.333C106.667 138.017 111.162 127.165 119.163 119.163C127.165 111.162 138.017 106.667 149.333 106.667H256C261.658 106.667 267.084 104.419 271.085 100.418C275.086 96.4175 277.333 90.9913 277.333 85.3333C277.333 79.6754 275.086 74.2492 271.085 70.2484C267.084 66.2476 261.658 64 256 64H149.333C126.702 64 104.997 72.9904 88.9936 88.9936C72.9904 104.997 64 126.702 64 149.333V362.667C64 385.298 72.9904 407.003 88.9936 423.006C104.997 439.01 126.702 448 149.333 448Z" fill="white"/>
<path d="M432.853 91.52L256 268.587L185.813 198.187C181.796 194.17 176.348 191.913 170.667 191.913C164.986 191.913 159.537 194.17 155.52 198.187C151.503 202.204 149.246 207.652 149.246 213.333C149.246 216.146 149.8 218.932 150.877 221.531C151.953 224.13 153.531 226.491 155.52 228.48L240.853 313.813C242.837 315.813 245.196 317.4 247.796 318.483C250.395 319.566 253.184 320.124 256 320.124C258.816 320.124 261.605 319.566 264.204 318.483C266.804 317.4 269.163 315.813 271.147 313.813L463.147 121.813C467.164 117.796 469.421 112.348 469.421 106.667C469.421 100.986 467.164 95.5372 463.147 91.52C459.129 87.5029 453.681 85.246 448 85.246C442.319 85.246 436.871 87.5029 432.853 91.52Z" fill="white"/>
</svg>
